<svg width="40" height="40" xmlns="http://www.w3.org/2000/svg" stroke-linejoin="round" stroke-linecap="round" stroke-width="2" stroke="#000000" fill="none">
 <g>
  <title>Layer 1</title>
  <g transform="rotate(-18.2354, 19.75, 20.8362)" id="svg_4">
   <circle id="svg_1" r="3.5" cy="25.83616" cx="13"/>
   <circle id="svg_2" r="3.5" cy="25.83616" cx="26.5"/>
   <path id="svg_3" d="m22.5,14.33616a1,1 0 1 0 0,-2a1,1 0 0 0 0,2zm-3,11.5l0,-3.5l-3,-3l4,-3l2,3l2,0"/>
  </g>
  <path id="svg_5" fill="#000000" d="m474.346,233.403c-10.57,3.222 -18.868,9.015 -25.208,14.756c-4.793,4.326 -8.66,8.652 -12.12,12.437c-5.186,5.719 -9.459,10.068 -13.497,12.631c-2.029,1.311 -3.992,2.251 -6.296,2.955c-2.304,0.689 -5,1.148 -8.571,1.148c-3.63,0 -6.356,-0.482 -8.689,-1.186c-4.022,-1.252 -7.238,-3.296 -11.142,-6.785c-2.896,-2.593 -6,-5.978 -9.541,-9.86c-5.319,-5.786 -11.63,-12.852 -20.802,-18.83c-4.578,-2.964 -9.874,-5.571 -15.801,-7.349c-5.933,-1.792 -12.452,-2.756 -19.379,-2.748c-7.037,-0.008 -13.653,0.985 -19.653,2.83c-10.564,3.222 -18.868,9.015 -25.209,14.756c-4.793,4.326 -8.66,8.652 -12.127,12.437c-5.178,5.719 -9.452,10.068 -13.482,12.631c-2.03,1.311 -3.993,2.251 -6.297,2.955c-2.304,0.689 -4.993,1.148 -8.571,1.148c-3.63,0 -6.348,-0.482 -8.682,-1.186c-4.015,-1.252 -7.23,-3.296 -11.134,-6.778c-2.896,-2.593 -6,-5.978 -9.534,-9.868c-5.326,-5.778 -11.63,-12.852 -20.809,-18.83c-4.57,-2.964 -9.874,-5.571 -15.801,-7.349c-5.926,-1.792 -12.445,-2.756 -19.375,-2.748c-7.034,-0.008 -13.649,0.985 -19.649,2.83c-10.56,3.222 -18.864,9.015 -25.202,14.756c-4.789,4.326 -8.652,8.66 -12.115,12.437c-5.175,5.726 -9.453,10.068 -13.483,12.631c-2.03,1.311 -3.989,2.251 -6.289,2.955c-2.304,0.689 -4.993,1.148 -8.564,1.148c-3.63,0 -6.352,-0.482 -8.678,-1.186c-4.019,-1.252 -7.237,-3.296 -11.142,-6.778c-2.889,-2.593 -5.989,-5.978 -9.53,-9.868c-5.323,-5.778 -11.63,-12.852 -20.801,-18.83c-4.575,-2.964 -9.875,-5.571 -15.804,-7.349c-5.928,-1.788 -12.443,-2.751 -19.369,-2.743l0,37.41c3.63,0.007 6.348,0.481 8.678,1.185c4.023,1.259 7.237,3.297 11.142,6.778c2.892,2.6 5.993,5.985 9.53,9.867c5.323,5.779 11.63,12.853 20.805,18.831c4.57,2.963 9.867,5.57 15.801,7.356c5.93,1.785 12.445,2.748 19.371,2.74c7.034,0.008 13.645,-0.978 19.649,-2.837c10.564,-3.215 18.864,-9.008 25.206,-14.749c4.789,-4.327 8.652,-8.66 12.116,-12.438c5.17,-5.726 9.452,-10.067 13.482,-12.638c2.03,-1.304 3.986,-2.252 6.289,-2.948c2.3,-0.689 4.989,-1.141 8.56,-1.148c3.634,0.007 6.352,0.481 8.686,1.185c4.015,1.259 7.237,3.297 11.142,6.778c2.889,2.6 5.985,5.985 9.526,9.867c5.327,5.779 11.63,12.853 20.809,18.831c4.57,2.963 9.868,5.57 15.801,7.356c5.926,1.785 12.445,2.748 19.371,2.74c7.038,0.008 13.653,-0.978 19.653,-2.829c10.564,-3.222 18.869,-9.008 25.209,-14.756c4.793,-4.327 8.66,-8.653 12.119,-12.438c5.186,-5.719 9.46,-10.06 13.49,-12.63c2.029,-1.304 3.992,-2.252 6.296,-2.956c2.305,-0.689 4.993,-1.141 8.571,-1.148c3.63,0.007 6.348,0.481 8.682,1.185c4.022,1.259 7.244,3.297 11.149,6.778c2.888,2.6 5.992,5.985 9.534,9.874c5.319,5.771 11.63,12.846 20.809,18.824c4.57,2.963 9.874,5.57 15.801,7.356c5.934,1.785 12.452,2.748 19.379,2.74c7.037,0.008 13.645,-0.978 19.653,-2.829c10.564,-3.222 18.868,-9.008 25.209,-14.756c4.793,-4.327 8.66,-8.653 12.12,-12.431c5.186,-5.726 9.46,-10.068 13.497,-12.638c2.03,-1.304 3.993,-2.252 6.297,-2.948c2.304,-0.696 4.993,-1.148 8.571,-1.155l0,-37.41c-7.041,-0.007 -13.655,0.986 -19.657,2.831z" class="st0"/>
  <g stroke-width="0">
   <title>Layer 1</title>
   <path class="st0" d="m52.2465,29.04452c-0.85542,0.3998 -1.54557,0.80109 -2.16308,1.15163c-0.92555,0.52952 -1.68816,0.9321 -2.40883,1.16941c-0.36212,0.12074 -0.71246,0.20851 -1.12366,0.27295c-0.4112,0.06444 -0.89236,0.10694 -1.52968,0.10694c-0.64785,0 -1.13437,-0.04463 -1.55074,-0.10972c-0.71781,-0.11592 -1.29178,-0.30527 -1.98853,-0.62831c-0.51685,-0.24009 -1.07083,-0.5535 -1.7028,-0.91293c-0.94929,-0.53572 -2.07563,-1.18996 -3.71257,-1.74346c-0.81704,-0.27434 -1.76223,-0.51582 -2.82003,-0.68035c-1.05887,-0.16601 -2.22233,-0.25518 -3.45861,-0.25453c-1.25591,-0.00065 -2.43668,0.0912 -3.50751,0.26203c-1.88538,0.29832 -3.36741,0.83405 -4.4991,1.36625c-0.85542,0.40054 -1.54557,0.80109 -2.16433,1.15163c-0.92413,0.52952 -1.68692,0.9321 -2.40616,1.16941c-0.3623,0.12074 -0.71264,0.20851 -1.12384,0.27295c-0.4112,0.06444 -0.89111,0.10694 -1.52968,0.10694c-0.64785,0 -1.13294,-0.04463 -1.54949,-0.10972c-0.71656,-0.11592 -1.29035,-0.30527 -1.98711,-0.62757c-0.51685,-0.24009 -1.07083,-0.5535 -1.70155,-0.91367c-0.95054,-0.53498 -2.07563,-1.18996 -3.71382,-1.74346c-0.81562,-0.27434 -1.76223,-0.51582 -2.82003,-0.68035c-1.05762,-0.16601 -2.22108,-0.25518 -3.45789,-0.25453c-1.25537,-0.00065 -2.43596,0.0912 -3.50679,0.26203c-1.88466,0.29832 -3.36669,0.83479 -4.49785,1.36625c-0.8547,0.40054 -1.54414,0.80183 -2.16219,1.15163c-0.92359,0.53017 -1.68709,0.9321 -2.40634,1.16941c-0.3623,0.12074 -0.71192,0.20851 -1.12241,0.27295c-0.4112,0.06444 -0.89111,0.10694 -1.52843,0.10694c-0.64785,0 -1.13365,-0.04463 -1.54878,-0.10972c-0.71728,-0.11592 -1.2916,-0.30527 -1.98853,-0.62757c-0.51561,-0.24009 -1.06887,-0.5535 -1.70084,-0.91367c-0.95001,-0.53498 -2.07563,-1.18996 -3.71239,-1.74346c-0.81651,-0.27434 -1.76241,-0.51582 -2.82057,-0.68035c-1.05852,-0.16601 -2.22108,-0.25518 -3.45736,-0.25453l0,3.46378c0.64785,0.00074 1.13294,0.04463 1.54878,0.10972c0.71799,0.11592 1.2916,0.30527 1.98853,0.62757c0.51614,0.24009 1.06958,0.55424 1.70084,0.91367c0.95001,0.53498 2.07563,1.18996 3.71311,1.74346c0.81562,0.27434 1.76098,0.51582 2.82003,0.68035c1.05834,0.16601 2.22108,0.25518 3.45718,0.25453c1.25537,0.00065 2.43525,-0.0912 3.50679,-0.26277c1.88538,-0.29768 3.36669,-0.83405 4.49856,-1.36561c0.8547,-0.40054 1.54414,-0.80183 2.16236,-1.15163c0.9227,-0.53017 1.68692,-0.9321 2.40616,-1.17015c0.3623,-0.12064 0.71139,-0.20842 1.12241,-0.27295c0.41049,-0.06389 0.8904,-0.10564 1.52772,-0.10629c0.64857,0.00074 1.13365,0.04463 1.55021,0.10972c0.71656,0.11592 1.2916,0.30527 1.98853,0.62757c0.51561,0.24009 1.06815,0.55424 1.70012,0.91367c0.95072,0.53498 2.07563,1.18996 3.71382,1.74346c0.81562,0.27434 1.76116,0.51582 2.82003,0.68035c1.05762,0.16601 2.22108,0.25518 3.45718,0.25453c1.25608,0.00065 2.43668,-0.0912 3.50751,-0.26203c1.88538,-0.29832 3.36758,-0.83405 4.4991,-1.36625c0.85542,-0.40054 1.54557,-0.80109 2.1629,-1.15163c0.92555,-0.52952 1.68834,-0.93145 2.40758,-1.16941c0.36212,-0.12074 0.71246,-0.20851 1.12366,-0.2736c0.41138,-0.06389 0.89111,-0.10564 1.52968,-0.10629c0.64785,0.00074 1.13294,0.04463 1.54949,0.10972c0.71781,0.11592 1.29285,0.30527 1.98978,0.62757c0.51543,0.24009 1.0694,0.55424 1.70155,0.91367c0.94929,0.53498 2.07563,1.18996 3.71382,1.74346c0.81562,0.27434 1.76223,0.51582 2.82003,0.68035c1.05905,0.16601 2.22233,0.25518 3.45861,0.25453c1.25591,0.00065 2.43525,-0.0912 3.50751,-0.26203c1.88538,-0.29832 3.36741,-0.83405 4.4991,-1.36625c0.85542,-0.40054 1.54557,-0.80109 2.16308,-1.15098c0.92555,-0.53017 1.68834,-0.9321 2.40883,-1.17015c0.3623,-0.12074 0.71264,-0.20851 1.12384,-0.27295c0.4112,-0.06444 0.89111,-0.10629 1.52968,-0.10694l0,-3.46378c-1.25608,-0.00065 -2.4365,0.0912 -3.50768,0.26203c-1.88645,0.2986 -3.36723,0.83433 -4.49892,1.36653z" fill="#000000" id="svg_6"/>
  </g>
 </g>

</svg>