<svg width="40" height="40" xmlns="http://www.w3.org/2000/svg" stroke-linejoin="round" stroke-linecap="round" stroke-width="2" stroke="#000000" fill="none">

 <g>
  <title>Layer 1</title>
  <g transform="rotate(0.476145, 20, 23.625)" id="svg_4">
   <circle id="svg_1" r="3.5" cy="28.625" cx="13.4375"/>
   <circle id="svg_2" r="3.5" cy="28.625" cx="26.5625"/>
   <path id="svg_3" d="m22.9375,17.125a1,1 0 1 0 0,-2a1,1 0 0 0 0,2zm-3,11.5l0,-3.5l-3,-3l4,-3l2,3l2,0"/>
  </g>
  <path id="svg_5" d="m2.93752,37.62499c0,-0.125 7.125,-5.375 7.06248,-5.375c0.06252,0 4.81252,4.875 4.75,4.875c0.06252,0 5.18752,-4.37499 5.125,-4.375c0.06252,0 4.56252,4.375 4.5,4.375c0.06252,0 6.06251,-4.74999 6,-4.75c0.06252,0 5.68751,5.125 5.625,5.125" opacity="NaN"/>
 </g>
</svg>