<svg width="56" height="56" xmlns="http://www.w3.org/2000/svg" fill="#000000">

 <g>
  <title>Layer 1</title>
  <path fill="#fc5200" stroke="#fc5200" id="svg_1" d="m28,50.8281c0.6094,0 1.1719,-0.0703 1.8047,-0.1171l1.3594,2.5781c0.2578,0.5156 0.7734,0.7968 1.4063,0.7031c0.5859,-0.1172 1.0078,-0.539 1.0781,-1.1719l0.4219,-2.8359c1.1484,-0.3047 2.2968,-0.75 3.4218,-1.2422l2.1094,1.8984c0.4453,0.4219 1.0078,0.5157 1.5937,0.1875c0.5157,-0.2812 0.7266,-0.8437 0.6094,-1.4531l-0.5859,-2.8125c0.9609,-0.6797 1.9219,-1.4531 2.789,-2.3203l2.625,1.1016c0.5861,0.2343 1.1251,0.1172 1.5706,-0.4219c0.3984,-0.4219 0.4449,-1.0313 0.1171,-1.5469l-1.5235,-2.4375c0.7032,-0.9843 1.2657,-2.0391 1.8048,-3.164l2.8593,0.1406c0.6092,0.0234 1.1247,-0.3047 1.3359,-0.8906c0.1872,-0.586 0,-1.1485 -0.4925,-1.5235l-2.2262,-1.7812c0.3048,-1.1251 0.539,-2.3438 0.6326,-3.6094l2.7187,-0.8437c0.5861,-0.211 0.961,-0.6563 0.961,-1.2891c0,-0.6094 -0.3749,-1.0547 -0.961,-1.2656l-2.7187,-0.8673c-0.0936,-1.2656 -0.3278,-2.4374 -0.6326,-3.5859l2.2262,-1.8046c0.4925,-0.3516 0.6797,-0.8907 0.4925,-1.4766c-0.2112,-0.586 -0.7267,-0.9141 -1.3359,-0.8907l-2.8593,0.1173c-0.5391,-1.1251 -1.1016,-2.1797 -1.8048,-3.1641l1.5235,-2.4375c0.3278,-0.4922 0.2813,-1.1016 -0.1171,-1.5235c-0.4455,-0.539 -0.9845,-0.6797 -1.5706,-0.4218l-2.625,1.0547c-0.8671,-0.8204 -1.8281,-1.6173 -2.789,-2.2969l0.5859,-2.7891c0.1172,-0.6328 -0.0937,-1.1953 -0.6094,-1.4766c-0.5859,-0.3047 -1.1484,-0.2578 -1.5937,0.211l-2.1094,1.8516c-1.125,-0.4922 -2.2734,-0.8907 -3.4218,-1.2188l-0.4219,-2.8359c-0.0703,-0.6094 -0.4922,-1.0547 -1.0781,-1.1485c-0.6329,-0.0937 -1.1485,0.1641 -1.4063,0.6797l-1.3594,2.5782c-0.6328,-0.0469 -1.1953,-0.0938 -1.8047,-0.0938c-0.6328,0 -1.1953,0.0469 -1.8515,0.0938l-1.3359,-2.5782c-0.2579,-0.5156 -0.7735,-0.7734 -1.4297,-0.6797c-0.586,0.0938 -0.9844,0.5391 -1.0782,1.1485l-0.3984,2.8125c-1.1719,0.3515 -2.3203,0.75 -3.4219,1.2422l-2.1093,-1.8516c-0.4688,-0.4688 -1.0313,-0.5157 -1.5938,-0.211c-0.5156,0.2813 -0.7266,0.8438 -0.6094,1.4766l0.5859,2.7891c-0.9843,0.6796 -1.9452,1.4765 -2.8125,2.2969l-2.6015,-1.0547c-0.586,-0.2579 -1.1485,-0.1172 -1.5938,0.4218c-0.3749,0.4219 -0.4218,1.0313 -0.1171,1.5l1.5468,2.461c-0.7031,0.9844 -1.2656,2.039 -1.8046,3.1641l-2.8829,-0.1173c-0.6093,-0.0234 -1.125,0.3047 -1.3125,0.8907c-0.1875,0.5859 -0.0234,1.125 0.4688,1.4766l2.25,1.8046c-0.3047,1.1485 -0.5625,2.3203 -0.6328,3.5859l-2.7188,0.8673c-0.6094,0.1874 -0.9375,0.6327 -0.9375,1.2656c0,0.6328 0.3281,1.0781 0.9375,1.2891l2.7188,0.8671c0.0703,1.2422 0.3281,2.4609 0.6328,3.586l-2.25,1.7812c-0.4922,0.375 -0.6563,0.9375 -0.4688,1.5235c0.1875,0.5859 0.7032,0.914 1.3125,0.8906l2.8829,-0.1406c0.539,1.1249 1.1015,2.1797 1.7812,3.164l-1.5,2.4375c-0.3516,0.5156 -0.3047,1.125 0.0937,1.5469c0.4453,0.5391 1.0078,0.6562 1.5938,0.4219l2.6015,-1.1016c0.8673,0.8672 1.8282,1.6406 2.8125,2.3203l-0.5859,2.8125c-0.1172,0.6094 0.0938,1.1719 0.6094,1.4531c0.5859,0.3282 1.1484,0.2344 1.5938,-0.1875l2.0859,-1.8984c1.125,0.4922 2.2734,0.9375 3.4453,1.2422l0.3984,2.8359c0.0938,0.6329 0.4922,1.0547 1.0782,1.1719c0.6562,0.0937 1.1718,-0.1875 1.4297,-0.7031l1.3359,-2.5781c0.6328,0.0468 1.2187,0.1171 1.8515,0.1171zm5.8829,-24.3281c-1.1016,-2.9531 -3.2578,-4.5703 -5.9532,-4.5703c-0.3984,0 -0.8671,0.0469 -1.6171,0.2109l-6.7266,-11.4843c2.5078,-1.2422 5.3671,-1.9219 8.414,-1.9219c10.2188,0 18.2344,7.7578 18.9611,17.7656l-13.0782,0zm-24.9141,1.5c0,-6.5156 3.0703,-12.2578 7.9219,-15.7265l6.7734,11.5546c-1.2656,1.3125 -1.8515,2.7422 -1.8515,4.2656c0,1.4766 0.5625,2.836 1.8515,4.1954l-6.9375,11.3437c-4.7344,-3.4922 -7.7578,-9.164 -7.7578,-15.6328zm16.1484,0.0703c0,-1.5937 1.3594,-2.8359 2.8594,-2.8359c1.5938,0 2.9063,1.2422 2.9063,2.8359c0,1.5703 -1.3125,2.8594 -2.9063,2.8594c-1.5,0 -2.8594,-1.2891 -2.8594,-2.8594zm2.8828,19.1953c-3.1171,0 -6.0234,-0.7265 -8.5781,-1.9921l6.8907,-11.2735c0.7265,0.1875 1.2187,0.2344 1.6171,0.2344c2.7188,0 4.875,-1.6641 5.9532,-4.6875l13.0782,0c-0.7502,9.9609 -8.7658,17.7187 -18.9611,17.7187z"/>
 </g>
</svg>